<mxfile host="app.diagrams.net" modified="2021-10-08T00:56:44.841Z" agent="5.0 (Windows)" etag="7dXAf4WEmACwNq9VYjnv" version="15.4.3" type="github">
  <diagram id="hfisGCpkYvtmeZW-5p2r" name="Page-1">
    <mxGraphModel dx="868" dy="478" grid="1" gridSize="10" guides="1" tooltips="1" connect="1" arrows="1" fold="1" page="1" pageScale="1" pageWidth="850" pageHeight="1100" math="0" shadow="0">
      <root>
        <mxCell id="0" />
        <mxCell id="1" parent="0" />
        <mxCell id="23xbA3XrxommICAyEXQ8-9" value="explanation" style="edgeStyle=orthogonalEdgeStyle;rounded=0;orthogonalLoop=1;jettySize=auto;html=1;exitX=0.5;exitY=1;exitDx=0;exitDy=0;entryX=0.5;entryY=0;entryDx=0;entryDy=0;fontSize=20;" parent="1" source="23xbA3XrxommICAyEXQ8-1" target="23xbA3XrxommICAyEXQ8-6" edge="1">
          <mxGeometry relative="1" as="geometry">
            <Array as="points">
              <mxPoint x="365" y="310" />
              <mxPoint x="365" y="310" />
            </Array>
          </mxGeometry>
        </mxCell>
        <mxCell id="23xbA3XrxommICAyEXQ8-1" value="Explanation model" style="rounded=0;whiteSpace=wrap;html=1;fontSize=20;" parent="1" vertex="1">
          <mxGeometry x="305" y="240" width="120" height="60" as="geometry" />
        </mxCell>
        <mxCell id="23xbA3XrxommICAyEXQ8-13" style="edgeStyle=orthogonalEdgeStyle;rounded=0;orthogonalLoop=1;jettySize=auto;html=1;exitX=0.5;exitY=0;exitDx=0;exitDy=0;entryX=0;entryY=0.5;entryDx=0;entryDy=0;fontSize=20;" parent="1" source="23xbA3XrxommICAyEXQ8-2" target="23xbA3XrxommICAyEXQ8-1" edge="1">
          <mxGeometry relative="1" as="geometry" />
        </mxCell>
        <mxCell id="23xbA3XrxommICAyEXQ8-17" value="advice to update" style="edgeLabel;html=1;align=center;verticalAlign=middle;resizable=0;points=[];fontSize=20;" parent="23xbA3XrxommICAyEXQ8-13" vertex="1" connectable="0">
          <mxGeometry x="-0.1676" y="1" relative="1" as="geometry">
            <mxPoint x="1" y="-16" as="offset" />
          </mxGeometry>
        </mxCell>
        <mxCell id="23xbA3XrxommICAyEXQ8-2" value="Human" style="ellipse;whiteSpace=wrap;html=1;fontSize=20;" parent="1" vertex="1">
          <mxGeometry x="60" y="400" width="120" height="80" as="geometry" />
        </mxCell>
        <mxCell id="-c3F_xC4dnhe_zyFxtBt-1" value="states and actions" style="edgeStyle=orthogonalEdgeStyle;rounded=0;orthogonalLoop=1;jettySize=auto;html=1;exitX=0.5;exitY=1;exitDx=0;exitDy=0;entryX=0.5;entryY=0;entryDx=0;entryDy=0;fontSize=20;" edge="1" parent="1" source="23xbA3XrxommICAyEXQ8-3" target="23xbA3XrxommICAyEXQ8-1">
          <mxGeometry relative="1" as="geometry" />
        </mxCell>
        <mxCell id="23xbA3XrxommICAyEXQ8-3" value="Agent" style="ellipse;whiteSpace=wrap;html=1;fontSize=20;" parent="1" vertex="1">
          <mxGeometry x="305" y="80" width="120" height="80" as="geometry" />
        </mxCell>
        <mxCell id="23xbA3XrxommICAyEXQ8-10" value="fail" style="edgeStyle=orthogonalEdgeStyle;rounded=0;orthogonalLoop=1;jettySize=auto;html=1;exitX=0;exitY=0.5;exitDx=0;exitDy=0;entryX=1;entryY=0.5;entryDx=0;entryDy=0;fontSize=20;" parent="1" source="23xbA3XrxommICAyEXQ8-6" target="23xbA3XrxommICAyEXQ8-2" edge="1">
          <mxGeometry relative="1" as="geometry" />
        </mxCell>
        <mxCell id="23xbA3XrxommICAyEXQ8-12" value="pass" style="edgeStyle=orthogonalEdgeStyle;rounded=0;orthogonalLoop=1;jettySize=auto;html=1;exitX=1;exitY=0.5;exitDx=0;exitDy=0;entryX=0;entryY=0.5;entryDx=0;entryDy=0;fontSize=20;" parent="1" source="23xbA3XrxommICAyEXQ8-6" target="23xbA3XrxommICAyEXQ8-7" edge="1">
          <mxGeometry relative="1" as="geometry" />
        </mxCell>
        <mxCell id="23xbA3XrxommICAyEXQ8-6" value="Filter" style="rhombus;whiteSpace=wrap;html=1;fontSize=20;" parent="1" vertex="1">
          <mxGeometry x="325" y="400" width="80" height="80" as="geometry" />
        </mxCell>
        <mxCell id="23xbA3XrxommICAyEXQ8-14" style="edgeStyle=orthogonalEdgeStyle;rounded=0;orthogonalLoop=1;jettySize=auto;html=1;exitX=0.5;exitY=0;exitDx=0;exitDy=0;entryX=1;entryY=0.5;entryDx=0;entryDy=0;fontSize=20;" parent="1" source="23xbA3XrxommICAyEXQ8-7" target="23xbA3XrxommICAyEXQ8-3" edge="1">
          <mxGeometry relative="1" as="geometry" />
        </mxCell>
        <mxCell id="23xbA3XrxommICAyEXQ8-21" value="rewards" style="edgeLabel;html=1;align=center;verticalAlign=middle;resizable=0;points=[];fontSize=20;" parent="23xbA3XrxommICAyEXQ8-14" vertex="1" connectable="0">
          <mxGeometry x="0.3017" relative="1" as="geometry">
            <mxPoint as="offset" />
          </mxGeometry>
        </mxCell>
        <mxCell id="23xbA3XrxommICAyEXQ8-7" value="Environment" style="rounded=0;whiteSpace=wrap;html=1;fontSize=20;" parent="1" vertex="1">
          <mxGeometry x="560" y="410" width="120" height="60" as="geometry" />
        </mxCell>
      </root>
    </mxGraphModel>
  </diagram>
</mxfile>
